<svg width="230" height="60" viewBox="0 0 230 60" fill="none" xmlns="http://www.w3.org/2000/svg">
<path d="M83.76 36.592V36.694H77.98C77.8213 36.15 77.6287 35.5267 77.402 34.824C77.198 34.1213 76.9713 33.3733 76.722 32.58H69.378C68.9247 34.1667 68.5053 35.538 68.12 36.694H62.34V36.626L69.31 15.172H76.79L83.76 36.592ZM72.982 19.048C72.7553 20.204 72.4267 21.6093 71.996 23.264C71.5653 24.9187 71.112 26.6073 70.636 28.33H75.498C74.9993 26.6073 74.5347 24.9187 74.104 23.264C73.6733 21.6093 73.3447 20.204 73.118 19.048H72.982ZM96.4893 36.694L96.2853 34.28H96.1493C95.7639 35.1867 95.2086 35.8667 94.4833 36.32C93.7806 36.7733 92.7493 37 91.3893 37C89.1906 37 87.5813 36.3653 86.5613 35.096C85.5413 33.804 85.0086 31.866 84.9633 29.282C84.9406 26.97 85.1786 25.134 85.6773 23.774C86.1759 22.414 86.9579 21.4393 88.0233 20.85C89.0886 20.2607 90.4486 19.966 92.1033 19.966C92.9646 19.966 93.7466 20.0453 94.4493 20.204C95.1519 20.34 95.7186 20.5327 96.1493 20.782L96.2173 20.748V13.812H101.657V36.694H96.4893ZM93.1573 32.376C94.0639 32.376 94.8006 32.0927 95.3673 31.526C95.9339 30.9593 96.2173 30.0187 96.2173 28.704V25.134C95.3786 24.794 94.3926 24.624 93.2593 24.624C92.1939 24.624 91.4233 24.8847 90.9473 25.406C90.4939 25.9047 90.2673 26.9247 90.2673 28.466C90.2673 29.7807 90.4486 30.7667 90.8113 31.424C91.1966 32.0587 91.9786 32.376 93.1573 32.376ZM126.313 19.966C127.99 19.966 129.316 20.5213 130.291 21.632C131.288 22.7427 131.787 24.6693 131.787 27.412V36.694H126.347L126.313 28.092C126.313 26.9813 126.143 26.1767 125.803 25.678C125.486 25.1793 124.851 24.93 123.899 24.93C122.947 24.93 122.301 25.1793 121.961 25.678C121.644 26.1767 121.485 26.9813 121.485 28.092V36.694H116.045L116.011 28.092C116.011 26.9813 115.841 26.1767 115.501 25.678C115.184 25.1793 114.549 24.93 113.597 24.93C112.645 24.93 111.999 25.1793 111.659 25.678C111.342 26.1767 111.183 26.9813 111.183 28.092V36.694H105.743V20.136H110.911L111.183 23.162H111.285C111.58 22.1647 112.09 21.3827 112.815 20.816C113.563 20.2493 114.617 19.966 115.977 19.966C117.337 19.966 118.402 20.2493 119.173 20.816C119.966 21.3827 120.476 22.1647 120.703 23.162H120.805C121.1 22.142 121.666 21.36 122.505 20.816C123.366 20.2493 124.636 19.966 126.313 19.966ZM140.66 13.982C140.728 14.798 140.762 15.478 140.762 16.022C140.762 16.3393 140.751 16.668 140.728 17.008C140.728 17.3253 140.706 17.688 140.66 18.096C140.184 18.1867 139.72 18.2547 139.266 18.3C138.813 18.3453 138.36 18.368 137.906 18.368C137.476 18.368 137.034 18.3453 136.58 18.3C136.15 18.2547 135.708 18.1867 135.254 18.096C135.209 17.7107 135.175 17.3593 135.152 17.042C135.13 16.702 135.118 16.3733 135.118 16.056C135.118 15.7613 135.13 15.444 135.152 15.104C135.175 14.764 135.209 14.39 135.254 13.982C135.708 13.8687 136.161 13.8007 136.614 13.778C137.09 13.7327 137.555 13.71 138.008 13.71C138.439 13.71 138.87 13.7327 139.3 13.778C139.754 13.8007 140.207 13.8687 140.66 13.982ZM140.66 36.694H135.22V20.136H140.66V36.694ZM149.865 36.694H144.425V20.136H149.593L149.865 23.162H149.967C150.284 22.142 150.851 21.36 151.667 20.816C152.483 20.2493 153.616 19.966 155.067 19.966C157.039 19.966 158.489 20.5213 159.419 21.632C160.371 22.7427 160.847 24.6693 160.847 27.412V36.694H155.407L155.373 28.466C155.373 27.1967 155.18 26.29 154.795 25.746C154.409 25.202 153.684 24.93 152.619 24.93C151.621 24.93 150.919 25.1793 150.511 25.678C150.103 26.154 149.887 26.9813 149.865 28.16V36.694ZM163.899 25.916C163.899 23.1733 164.205 20.9973 164.817 19.388C165.452 17.7787 166.528 16.6227 168.047 15.92C169.588 15.2173 171.73 14.866 174.473 14.866C176.536 14.866 178.247 15.0587 179.607 15.444C180.967 15.8293 182.044 16.4527 182.837 17.314C183.63 18.1753 184.186 19.32 184.503 20.748C184.843 22.1533 185.013 23.876 185.013 25.916C185.013 27.9787 184.843 29.724 184.503 31.152C184.186 32.5573 183.63 33.6907 182.837 34.552C182.044 35.4133 180.967 36.0367 179.607 36.422C178.247 36.8073 176.536 37 174.473 37C172.41 37 170.699 36.8073 169.339 36.422C167.979 36.0367 166.902 35.4133 166.109 34.552C165.316 33.6907 164.749 32.5573 164.409 31.152C164.069 29.724 163.899 27.9787 163.899 25.916ZM174.473 32.24C175.924 32.24 177.012 32.0587 177.737 31.696C178.462 31.3333 178.95 30.6987 179.199 29.792C179.448 28.8627 179.573 27.5707 179.573 25.916C179.573 24.284 179.448 23.0147 179.199 22.108C178.95 21.2013 178.462 20.5667 177.737 20.204C177.012 19.8187 175.924 19.626 174.473 19.626C173.045 19.626 171.957 19.8187 171.209 20.204C170.484 20.5667 169.985 21.2013 169.713 22.108C169.464 23.0147 169.339 24.284 169.339 25.916C169.339 27.5707 169.464 28.8627 169.713 29.792C169.985 30.6987 170.484 31.3333 171.209 31.696C171.957 32.0587 173.045 32.24 174.473 32.24ZM193.859 43.018H188.419V20.136H193.587L193.859 22.482V22.686H193.927C194.312 21.7567 194.856 21.0767 195.559 20.646C196.284 20.1927 197.327 19.966 198.687 19.966C200.886 19.966 202.495 20.612 203.515 21.904C204.558 23.1733 205.09 25.1 205.113 27.684C205.158 29.9733 204.92 31.8093 204.399 33.192C203.9 34.552 203.118 35.5267 202.053 36.116C200.988 36.7053 199.628 37 197.973 37C197.112 37 196.33 36.9207 195.627 36.762C194.947 36.6033 194.38 36.4107 193.927 36.184L193.859 36.218V43.018ZM196.919 24.59C196.012 24.59 195.276 24.8733 194.709 25.44C194.142 25.984 193.859 26.9247 193.859 28.262V31.832C194.698 32.172 195.684 32.342 196.817 32.342C197.882 32.342 198.642 32.0927 199.095 31.594C199.571 31.0727 199.809 30.0413 199.809 28.5C199.809 27.1627 199.628 26.1767 199.265 25.542C198.902 24.9073 198.12 24.59 196.919 24.59ZM207.261 32.002C209.029 32.5007 210.989 32.75 213.143 32.75C214.185 32.75 214.967 32.716 215.489 32.648C216.01 32.58 216.361 32.4667 216.543 32.308C216.724 32.1493 216.815 31.934 216.815 31.662C216.815 31.2767 216.667 31.0387 216.373 30.948C216.101 30.8573 215.545 30.7327 214.707 30.574L212.021 30.064C210.298 29.724 209.051 29.1913 208.281 28.466C207.533 27.718 207.159 26.6073 207.159 25.134C207.159 23.1393 207.748 21.7793 208.927 21.054C210.128 20.3287 212.032 19.966 214.639 19.966C216.203 19.966 217.574 20.0567 218.753 20.238C219.954 20.3967 220.951 20.6007 221.745 20.85L221.677 24.964L221.575 25.066C219.739 24.4767 217.733 24.182 215.557 24.182C214.491 24.182 213.743 24.2613 213.313 24.42C212.905 24.556 212.701 24.8393 212.701 25.27C212.701 25.4967 212.757 25.678 212.871 25.814C213.007 25.95 213.301 26.086 213.755 26.222C214.208 26.3353 214.922 26.4827 215.897 26.664L218.379 27.14C219.761 27.4347 220.781 27.922 221.439 28.602C222.096 29.282 222.425 30.3587 222.425 31.832C222.425 33.124 222.187 34.1553 221.711 34.926C221.235 35.674 220.43 36.2067 219.297 36.524C218.186 36.8413 216.645 37 214.673 37C213.177 37 211.794 36.932 210.525 36.796C209.278 36.6373 208.156 36.456 207.159 36.252V32.07L207.261 32.002Z" fill="white"/>
<path d="M21.3789 37.0338L12.8888 36.9868L12.8418 5.70326C12.8418 5.13478 12.3697 4.70966 11.8482 4.70966H4.13423C3.56575 4.70966 3.14062 5.18174 3.14062 5.70326V45.1506C3.14062 45.9762 3.81044 46.6435 4.6335 46.6435H14.3026C14.3026 46.6435 15.1602 46.641 15.5384 46.1195C16.1365 45.3088 20.63 38.5588 21.4975 37.2513C21.5593 37.1574 21.4926 37.0313 21.3789 37.0313V37.0338Z" fill="white"/>
<path d="M35.6172 5.75058C28.3753 2.81674 20.1398 6.36602 17.206 13.6549C15.6439 17.5823 15.9751 21.6531 17.6781 25.2024C19.4774 28.895 22.8364 31.6386 26.9072 32.6791C23.9412 36.96 18.6964 44.7704 17.6336 46.3547C17.552 46.4758 17.6385 46.6389 17.7843 46.6389C19.0548 46.6389 28.0639 46.6414 29.5666 46.6414C29.7001 46.6414 29.8237 46.5747 29.9003 46.4659C31.0917 44.7333 40.7113 30.6771 43.6179 24.1643C46.4578 16.7815 42.9036 8.63498 35.6148 5.74811L35.6172 5.75058ZM30.3749 24.886C28.054 24.886 26.0396 23.5538 25.051 21.616C25.0435 21.6086 25.0361 21.6037 25.0312 21.5938C24.8483 21.228 24.7049 20.8399 24.5987 20.4346C24.5912 20.4099 24.5863 20.3852 24.5789 20.3629C24.5616 20.2912 24.5443 20.2196 24.5294 20.1454C24.5196 20.096 24.5097 20.0466 24.5023 19.9971C24.4924 19.9427 24.48 19.8859 24.4726 19.8315C24.4553 19.7228 24.4429 19.614 24.4306 19.5053C24.4281 19.4756 24.4256 19.4459 24.4232 19.4163C24.4157 19.3298 24.4108 19.2408 24.4059 19.1518C24.4059 19.1123 24.4059 19.0752 24.4034 19.0357C24.4034 18.9961 24.4009 18.9566 24.4009 18.9145C24.4009 18.8725 24.4009 18.8354 24.4034 18.7959C24.4034 18.7687 24.4034 18.744 24.4034 18.7168C24.4034 18.6946 24.4059 18.6723 24.4083 18.6476C24.4083 18.613 24.4108 18.5784 24.4133 18.5463C24.4182 18.4795 24.4232 18.4128 24.4281 18.3461C24.4306 18.3164 24.4355 18.2843 24.438 18.2546C24.4454 18.1904 24.4528 18.1236 24.4627 18.0594C24.4677 18.0223 24.4726 17.9877 24.48 17.9531C24.4899 17.8987 24.4998 17.8443 24.5097 17.7899C24.5196 17.743 24.5294 17.6936 24.5393 17.6466C24.5468 17.6095 24.5566 17.5724 24.564 17.5354C24.5789 17.4711 24.5962 17.4044 24.6135 17.3401C24.616 17.3277 24.6209 17.3154 24.6234 17.303C25.3278 14.7894 27.6388 12.9406 30.3749 12.9406C31.3314 12.9406 32.236 13.168 33.0393 13.5709C33.0442 13.5709 33.0467 13.5758 33.0517 13.5783C33.1308 13.6178 33.2098 13.6598 33.2865 13.7018C33.3062 13.7142 33.3285 13.7266 33.3483 13.7389C33.4076 13.7735 33.4694 13.8081 33.5262 13.8452C33.5584 13.865 33.588 13.8848 33.6201 13.9045C33.6671 13.9367 33.7165 13.9663 33.7635 14.0009C33.8006 14.0256 33.8352 14.0528 33.8722 14.0775C33.9143 14.1072 33.9563 14.1369 33.9958 14.169C34.0329 14.1962 34.07 14.2258 34.1046 14.2555C34.1441 14.2876 34.1837 14.3198 34.2232 14.3544C34.2554 14.3816 34.2899 14.4112 34.3221 14.4384C34.3641 14.4755 34.4086 14.515 34.4481 14.5546C34.4729 14.5793 34.5 14.6015 34.5248 14.6262C34.5742 14.6732 34.6236 14.7226 34.6706 14.7721C34.6854 14.7869 34.7002 14.8017 34.7151 14.819C34.7744 14.8833 34.8337 14.9476 34.8906 15.0143C34.8906 15.0143 34.8906 15.0143 34.893 15.0168C35.7976 16.0647 36.3464 17.4266 36.3464 18.917C36.3464 22.2117 33.6671 24.891 30.3724 24.891L30.3749 24.886Z" fill="#2973F6"/>
<path d="M43.7881 38.8893C43.6472 38.652 43.2962 38.6669 43.1553 38.9041C42.7228 39.6407 41.5438 41.9072 40.7232 40.3822C40.4761 39.9224 39.5294 38.0489 39.1167 37.2531C38.9214 36.8749 38.4988 37.0207 38.3233 37.2728L32.1837 46.4377C32.1096 46.544 32.1837 46.6873 32.3147 46.6873L45.9804 46.7294C46.8232 46.7318 47.3621 45.8321 46.9592 45.0907C45.8593 43.0639 44.3145 39.7766 43.7881 38.8868V38.8893Z" fill="white"/>
<path d="M21.3789 37.0333L12.8888 36.9863L12.8418 5.70277C12.8418 5.13429 12.3697 4.70917 11.8482 4.70917H4.13423C3.56575 4.70917 3.14062 5.18125 3.14062 5.70277V45.1502C3.14062 45.9757 3.81044 46.643 4.6335 46.643H14.3026C14.3026 46.643 15.1602 46.6406 15.5384 46.119C16.1365 45.3083 20.63 38.5583 21.4975 37.2508C21.5593 37.1569 21.4926 37.0308 21.3789 37.0308V37.0333Z" fill="#E0E0E0"/>
<path d="M35.6172 5.75009C28.3753 2.81625 20.1398 6.36553 17.206 13.6544C15.6439 17.5818 15.9751 21.6526 17.6781 25.2019C19.4774 28.8945 22.8364 31.6381 26.9072 32.6786C23.9412 36.9595 18.6964 44.7699 17.6336 46.3542C17.552 46.4753 17.6385 46.6385 17.7843 46.6385C19.0548 46.6385 28.0639 46.6409 29.5666 46.6409C29.7001 46.6409 29.8237 46.5742 29.9003 46.4654C31.0917 44.7328 40.7113 30.6766 43.6179 24.1638C46.4578 16.781 42.9036 8.6345 35.6148 5.74762L35.6172 5.75009ZM30.3749 24.8855C28.054 24.8855 26.0396 23.5533 25.051 21.6156C25.0435 21.6081 25.0361 21.6032 25.0312 21.5933C24.8483 21.2275 24.7049 20.8395 24.5987 20.4341C24.5912 20.4094 24.5863 20.3847 24.5789 20.3624C24.5616 20.2908 24.5443 20.2191 24.5294 20.1449C24.5196 20.0955 24.5097 20.0461 24.5023 19.9966C24.4924 19.9423 24.48 19.8854 24.4726 19.831C24.4553 19.7223 24.4429 19.6135 24.4306 19.5048C24.4281 19.4751 24.4256 19.4455 24.4232 19.4158C24.4157 19.3293 24.4108 19.2403 24.4059 19.1513C24.4059 19.1118 24.4059 19.0747 24.4034 19.0352C24.4034 18.9956 24.4009 18.9561 24.4009 18.9141C24.4009 18.872 24.4009 18.835 24.4034 18.7954C24.4034 18.7682 24.4034 18.7435 24.4034 18.7163C24.4034 18.6941 24.4059 18.6718 24.4083 18.6471C24.4083 18.6125 24.4108 18.5779 24.4133 18.5458C24.4182 18.479 24.4232 18.4123 24.4281 18.3456C24.4306 18.3159 24.4355 18.2838 24.438 18.2541C24.4454 18.1899 24.4528 18.1231 24.4627 18.0589C24.4677 18.0218 24.4726 17.9872 24.48 17.9526C24.4899 17.8982 24.4998 17.8438 24.5097 17.7895C24.5196 17.7425 24.5294 17.6931 24.5393 17.6461C24.5468 17.609 24.5566 17.572 24.564 17.5349C24.5789 17.4706 24.5962 17.4039 24.6135 17.3396C24.616 17.3273 24.6209 17.3149 24.6234 17.3025C25.3278 14.7889 27.6388 12.9401 30.3749 12.9401C31.3314 12.9401 32.236 13.1675 33.0393 13.5704C33.0442 13.5704 33.0467 13.5753 33.0517 13.5778C33.1308 13.6173 33.2098 13.6593 33.2865 13.7014C33.3062 13.7137 33.3285 13.7261 33.3483 13.7384C33.4076 13.773 33.4694 13.8076 33.5262 13.8447C33.5584 13.8645 33.588 13.8843 33.6201 13.904C33.6671 13.9362 33.7165 13.9658 33.7635 14.0004C33.8006 14.0251 33.8352 14.0523 33.8722 14.0771C33.9143 14.1067 33.9563 14.1364 33.9958 14.1685C34.0329 14.1957 34.07 14.2253 34.1046 14.255C34.1441 14.2871 34.1837 14.3193 34.2232 14.3539C34.2554 14.3811 34.2899 14.4107 34.3221 14.4379C34.3641 14.475 34.4086 14.5145 34.4481 14.5541C34.4729 14.5788 34.5 14.601 34.5248 14.6258C34.5742 14.6727 34.6236 14.7221 34.6706 14.7716C34.6854 14.7864 34.7002 14.8012 34.7151 14.8185C34.7744 14.8828 34.8337 14.9471 34.8906 15.0138C34.8906 15.0138 34.8906 15.0138 34.893 15.0163C35.7976 16.0643 36.3464 17.4261 36.3464 18.9165C36.3464 22.2112 33.6671 24.8905 30.3724 24.8905L30.3749 24.8855Z" fill="white"/>
<path d="M43.7881 38.8889C43.6472 38.6516 43.2962 38.6664 43.1553 38.9037C42.7228 39.6403 41.5438 41.9068 40.7232 40.3817C40.4761 39.922 39.5294 38.0485 39.1167 37.2526C38.9214 36.8745 38.4988 37.0203 38.3233 37.2724L32.1837 46.4373C32.1096 46.5436 32.1837 46.6869 32.3147 46.6869L45.9804 46.7289C46.8232 46.7314 47.3621 45.8317 46.9592 45.0902C45.8593 43.0635 44.3145 39.7762 43.7881 38.8864V38.8889Z" fill="#7E828A"/>
</svg>
